<svg width="797" height="980" viewBox="0 0 797 980" fill="none" xmlns="http://www.w3.org/2000/svg">
<path d="M645.3 97.9C629.6 88.8 609.4 94.2 600.3 110L567.4 167L681.4 232.8L714.3 175.8C723.4 160 718 139.9 702.2 130.8L645.3 97.9Z" fill="white"/>
<path d="M147 97.9L90 130.8C74.3 139.9 68.9001 160 77.9001 175.8L110.8 232.8L224.8 167L191.9 110C182.9 94.2 162.7 88.8 147 97.9Z" fill="white"/>
<path d="M398.1 148.2C418.9 148.2 439.3 150.2 459.4 153.1V99.8L501.5 99.5V30.6C501.5 13.7 487.8 0 470.9 0H325.7C308.8 0 295.1 13.7 295.1 30.6V99.5L336.9 99.8V153.1C356.9 150.3 377.3 148.2 398.1 148.2Z" fill="white"/>
<path d="M398.1 325.9C256.7 325.9 142.1 440.5 142.1 581.9C142.1 723.3 256.7 837.9 398.1 837.9C539.5 837.9 654.1 723.3 654.1 581.9C654.1 440.5 539.5 325.9 398.1 325.9ZM434.9 628.8C420.1 642.3 390.5 634 368.8 610.2C347.1 586.4 341.5 556.2 356.3 542.7C371.1 529.2 503.6 456.1 544.1 450.3C534.6 490 449.7 615.3 434.9 628.8Z" fill="white"/>
<path d="M398.1 183.8C178.2 183.8 0 362 0 581.9C0 801.8 178.2 980 398.1 980C618 980 796.2 801.8 796.2 581.9C796.2 362 618 183.8 398.1 183.8ZM398.1 904.9C219.7 904.9 75.1 760.3 75.1 581.9C75.1 403.5 219.7 258.9 398.1 258.9C576.5 258.9 721.1 403.5 721.1 581.9C721.1 760.3 576.5 904.9 398.1 904.9Z" fill="white"/>
</svg>
